<?xml version="1.0" encoding="UTF-8" standalone="no"?>
<svg
   xmlns:dc="http://purl.org/dc/elements/1.1/"
   xmlns:cc="http://creativecommons.org/ns#"
   xmlns:rdf="http://www.w3.org/1999/02/22-rdf-syntax-ns#"
   xmlns:svg="http://www.w3.org/2000/svg"
   xmlns="http://www.w3.org/2000/svg"
   xmlns:sodipodi="http://sodipodi.sourceforge.net/DTD/sodipodi-0.dtd"
   xmlns:inkscape="http://www.inkscape.org/namespaces/inkscape"
   version="1.0"
   width="128.67569mm"
   height="59.884029mm"
   id="svg2"
   inkscape:version="0.91 r13725"
   viewBox="0 0 128.67569 59.884029"
   sodipodi:docname="SUSE-logo.svg">
  <metadata
     id="metadata15">
    <rdf:RDF>
      <cc:Work
         rdf:about="">
        <dc:format>image/svg+xml</dc:format>
        <dc:type
           rdf:resource="http://purl.org/dc/dcmitype/StillImage" />
        <dc:title></dc:title>
      </cc:Work>
    </rdf:RDF>
  </metadata>
  <sodipodi:namedview
     pagecolor="#ffffff"
     bordercolor="#666666"
     borderopacity="1"
     objecttolerance="10"
     gridtolerance="10"
     guidetolerance="10"
     inkscape:pageopacity="0"
     inkscape:pageshadow="2"
     inkscape:window-width="1166"
     inkscape:window-height="923"
     id="namedview13"
     inkscape:document-units="mm"
     showgrid="false"
     inkscape:zoom="0.71501031"
     inkscape:cx="8.3914874"
     inkscape:cy="106.09375"
     inkscape:window-x="635"
     inkscape:window-y="260"
     inkscape:window-maximized="0"
     inkscape:current-layer="svg2" />
  <defs
     id="defs4">
    <pattern
       id="WMFhbasepattern"
       patternUnits="userSpaceOnUse"
       width="6"
       height="6"
       x="0"
       y="0" />
  </defs>
  <path
     style="fill:#000000;fill-opacity:1;fill-rule:nonzero;stroke:none"
     d="m 97.807498,51.593609 0,0 -0.08805,0.705555 -0.08805,0.705556 -0.176671,0.793891 -0.264442,0.61722 -0.352778,0.705556 -0.352778,0.617502 -0.441113,0.617502 -0.528885,0.528885 -0.529448,0.529448 -0.61722,0.440832 -0.61722,0.352777 -0.705556,0.352778 -0.793891,0.264725 -0.793891,0.176106 -0.793609,0.176671 -0.881945,0 0,0 -14.993055,0 0,-5.556391 14.993055,0 0,0 0.352778,-0.08805 0.352778,-0.08834 0.352778,-0.176389 0.264442,-0.176388 0.264724,-0.352778 0.264725,-0.352778 0.08805,-0.352778 0.08805,-0.441113 0,0 0,-0.528885 -0.176107,-0.352777 -0.176671,-0.352778 -0.264442,-0.352778 -0.352778,-0.264724 -0.352778,-0.264725 -0.529167,-0.08805 -0.529166,-0.176389 0,0 -9.260558,-1.322776 0,0 -0.881662,-0.176671 -0.793891,-0.264442 -0.793892,-0.264442 -0.705555,-0.352778 -0.61722,-0.441113 L 75.847222,45.949164 75.318056,45.508333 74.876942,44.979167 74.436111,44.45 74.171387,43.832498 73.818609,43.215278 73.642502,42.598058 73.465831,41.980556 73.289724,41.275 l -0.08834,-1.323058 0,0 0.08834,-0.705555 0.08805,-0.705556 0.176389,-0.793609 0.264442,-0.617502 0.264724,-0.705556 0.440831,-0.61722 0.441114,-0.61722 0.441113,-0.529448 0.61722,-0.528885 0.61722,-0.441113 0.617502,-0.352778 0.705556,-0.352778 0.793609,-0.264442 0.793891,-0.176671 0.793891,-0.176107 0.881662,0 0,0 14.993338,0 0,5.556109 -14.993338,0 0,0 -0.352778,0.08834 -0.352777,0.08805 -0.352778,0.176389 -0.352778,0.176389 -0.264442,0.352778 -0.176389,0.352777 -0.176389,0.352778 0,0.440831 0,0 0,0.529449 0.08834,0.352778 0.264442,0.352778 0.264442,0.352777 0.264725,0.264443 0.440831,0.176389 0.529449,0.176388 0.528884,0.176389 0,0 9.260558,1.323058 0,0 0.881944,0.176107 0.793609,0.264724 0.705556,0.264725 0.705555,0.352777 0.617502,0.352778 0.617503,0.528885 0.528884,0.441113 0.441113,0.529167 0.352778,0.529166 0.352778,0.61722 0.264442,0.617503 0.264725,0.617502 0.176389,0.61722 0.08833,0.705555 0.176107,1.322776 0,0 z M 65.70472,32.367502 l 0,15.963054 0,0 0,0.617502 -0.08805,0.61722 -0.176389,0.529166 -0.176389,0.529167 -0.264725,0.529167 -0.352777,0.529166 -0.352778,0.441114 -0.352778,0.440831 L 63.5,53.00472 l -0.440831,0.264724 -0.529449,0.352778 -0.528884,0.264725 -0.529449,0.176106 -0.61722,0.176671 -0.529167,0.08805 -0.617502,0 0,0 -0.61722,0 -0.61722,-0.08805 -0.617502,-0.176671 -0.529167,-0.176106 -0.529167,-0.264725 -0.529166,-0.352778 -0.441114,-0.264724 -0.440831,-0.440831 -0.352778,-0.440831 -0.352777,-0.441114 -0.352778,-0.529166 -0.264725,-0.529167 -0.176106,-0.529167 -0.08834,-0.529166 -0.176389,-0.61722 0,-0.617502 0,-15.963054 -5.820833,0 0,15.610276 0,0 0.08834,1.234722 0.176107,1.146669 0.264725,1.146387 0.440831,1.058333 0.441113,1.058333 0.61722,0.97028 0.705556,0.881662 0.793891,0.882227 0.793891,0.793609 0.881662,0.617502 1.058333,0.61722 0.97028,0.529167 1.146387,0.352778 1.146669,0.352777 1.146669,0.176389 1.23444,0 0,0 1.146669,0 1.234722,-0.176389 1.146387,-0.352777 1.058333,-0.352778 1.058333,-0.529167 0.97028,-0.61722 0.881945,-0.617502 0.881944,-0.793609 0.705556,-0.882227 0.705555,-0.881662 0.617502,-0.97028 0.440832,-1.058333 0.440831,-1.058333 0.264724,-1.146387 0.176389,-1.146669 0.08834,-1.234722 0,-15.610276 -5.821116,0 z m 62.88278,24.958887 0,0 0,-0.352778 -0.17639,-0.352778 -0.17639,-0.264442 -0.17639,-0.264724 -0.26472,-0.264725 -0.35278,-0.176106 -0.35278,-0.08834 -0.35277,0 0,0 -0.35278,0 -0.35278,0.08834 -0.35278,0.176106 -0.26444,0.264725 -0.26444,0.264724 -0.0883,0.264442 -0.17639,0.352778 0,0.352778 0,0 0,0.441113 0.17639,0.264442 0.0883,0.352778 0.26444,0.264442 0.26444,0.264725 0.35278,0.176389 0.35278,0.08834 0.35278,0 0,0 0.35277,0 0.35278,-0.176671 0.35278,-0.08805 0.26472,-0.264725 0.17639,-0.264442 0.17639,-0.352778 0.17639,-0.352777 0,-0.352778 0,0 z m -0.35278,0 0,0 -0.0883,0.352778 -0.0881,0.264442 -0.0881,0.264724 -0.17667,0.176389 -0.26444,0.176389 -0.17639,0.176389 -0.35278,0.08834 -0.26472,0 0,0 -0.35278,0 -0.26444,-0.08834 -0.26445,-0.176389 -0.17667,-0.176389 -0.1761,-0.176389 -0.0883,-0.264724 -0.0883,-0.264442 -0.0881,-0.352778 0,0 0.0881,-0.264442 0.0883,-0.264725 0.0883,-0.264724 0.1761,-0.176107 0.26473,-0.176671 0.17639,-0.176107 0.35277,-0.08834 0.26445,0 0,0 0.26472,0 0.35278,0.08834 0.17639,0.176107 0.26444,0.176671 0.17667,0.176107 0.0881,0.264724 0.0881,0.264725 0.0883,0.264442 0,0 z m -0.70555,-0.352778 0,0 -0.0883,-0.176389 -0.0881,-0.176389 -0.26473,-0.176389 -0.26444,0 -0.79389,0 0,1.763889 0.44111,0 0,-0.617502 0.26445,0 0.35277,0.617502 0.52945,0 -0.44111,-0.617502 0,0 0.26444,-0.264442 0.0883,-0.08834 0,-0.264442 0,0 z m -0.35278,0.08834 0,0 -0.0883,0.176106 -0.26444,0.08834 -0.35278,0 0,-0.529167 0.35278,0 0,0 0.26444,0.08805 0.0883,0.176671 0,0 z m -8.20223,-19.138336 0,0 0.88223,-0.08834 0.79361,-0.264443 0.79361,-0.352777 0.70555,-0.61722 0.52945,-0.705556 0.44083,-0.882227 0.17639,-0.440831 0.17639,-0.529166 0.0881,-0.61722 0,-0.617503 0,0 0,-0.440831 -16.22778,0 0,0 -0.88166,0 -0.7939,0.176107 -0.79389,0.176671 -0.79361,0.264442 -0.70555,0.352778 -0.6175,0.352778 -0.61722,0.441113 -0.61722,0.528885 -0.44112,0.529448 -0.44111,0.61722 -0.44083,0.61722 -0.264726,0.705556 -0.264442,0.617502 -0.176389,0.793609 -0.176389,0.705556 0,0.705555 0,0 0,0 0,11.641667 0,0 0,0.705555 0.176389,0.705556 0.176389,0.793891 0.264442,0.61722 0.264726,0.705556 0.44083,0.617502 0.44111,0.617502 0.44112,0.528885 0.61722,0.529448 0.61722,0.440832 0.6175,0.352777 0.70555,0.352778 0.79361,0.264725 0.79389,0.176106 0.7939,0.176671 0.88166,0 0,0 16.22778,0 0,0 0,-0.441113 0,0 0,-0.61722 -0.0881,-0.617502 -0.17639,-0.529167 -0.17639,-0.441113 -0.44083,-0.881662 -0.52945,-0.705556 -0.70555,-0.617502 L 120.65,53.975 l -0.79361,-0.264724 -0.88223,-0.08805 0,0 -11.64166,0 0,0 -0.35278,-0.08805 -0.35278,-0.08834 -0.35278,-0.176389 -0.35277,-0.176388 -0.26445,-0.352778 -0.17638,-0.352778 -0.17639,-0.352778 0,-0.441113 0,0 0,-0.528885 0.0883,-0.441113 0.26444,-0.352778 0.26445,-0.352777 0.26472,-0.264443 0.44083,-0.264724 0.52945,-0.08805 0.52889,-0.08834 0,0 5.02722,0 0,0 0.79389,0 0.79361,-0.08834 0.70556,-0.176106 0.70555,-0.176671 0.6175,-0.264443 0.61722,-0.352777 0.52917,-0.352778 0.52917,-0.352778 0.44111,-0.441113 0.44083,-0.440831 0.70556,-0.97028 0.6175,-1.146387 0.35278,-1.146387 -12.17112,0 0,0 -0.79361,0.08805 -0.6175,0.264724 -0.52888,0.264442 -0.44112,0.264443 -0.35278,0.352777 -0.17638,0.264725 -0.17639,0.264724 0,-5.11556 0,0 0,-0.440831 0.17639,-0.352778 0.17638,-0.352777 0.26445,-0.352778 0.35277,-0.176389 0.35278,-0.176389 0.35278,-0.08805 0.35278,-0.08834 11.64166,0 z m -79.551102,5.73278 0,0 -9.260558,-1.323058 0,0 -0.529167,-0.176389 -0.529166,-0.176388 -0.441114,-0.176389 -0.264442,-0.264443 -0.264583,-0.352777 -0.264584,-0.352778 -0.08819,-0.352778 0,-0.529449 0,0 0,-0.440831 0.176389,-0.352778 0.176389,-0.352777 0.264583,-0.352778 0.352778,-0.176389 0.352778,-0.176389 0.352777,-0.08805 0.352778,-0.08834 14.993056,0 0,-5.556109 0,0 -14.993056,0 0,0 -0.881944,0 -0.79375,0.176107 -0.79375,0.176671 -0.79375,0.264442 -0.705556,0.352778 -0.617361,0.352778 -0.617361,0.441113 -0.617361,0.528885 -0.440972,0.529448 -0.440973,0.61722 -0.440972,0.61722 -0.264583,0.705556 -0.264583,0.617502 -0.176389,0.793609 -0.08819,0.705556 -0.08819,0.705555 0,0 0.08819,1.323058 0.176389,0.705556 0.176389,0.617502 0.176389,0.61722 0.352778,0.61722 0.264583,0.617502 0.440972,0.529167 0.440972,0.529166 0.529167,0.440831 0.529167,0.441114 0.617361,0.441113 0.705555,0.352778 0.79375,0.264442 0.79375,0.264442 0.881945,0.176671 0,0 9.260558,1.322776 0,0 0.528884,0.176389 0.529449,0.08805 0.352778,0.264725 0.352778,0.264724 0.264442,0.352778 0.176389,0.352778 0.176389,0.352777 0,0.528885 0,0 -0.08834,0.441113 -0.08805,0.352778 -0.264725,0.352778 -0.264442,0.352778 -0.264442,0.176388 -0.352778,0.176389 -0.352778,0.08834 -0.352778,0.08805 -10.936252,0 0,0 0,0 -0.881944,0.08805 -0.79375,0.264724 -0.79375,0.352778 -0.705556,0.617502 -0.529166,0.705556 -0.440973,0.881662 -0.176389,0.441113 -0.176388,0.529167 -0.08819,0.617502 0,0.61722 0,0 0,0.441113 0,0 15.522363,0 0,0 0.793609,0 0.881945,-0.176671 0.793891,-0.176106 0.793609,-0.264725 0.705555,-0.352778 0.617503,-0.352777 0.61722,-0.440832 0.529166,-0.529448 0.529167,-0.528885 0.441113,-0.617502 0.352778,-0.617502 0.352778,-0.705556 0.264442,-0.61722 0.176389,-0.793891 0.08805,-0.705556 0.08834,-0.705555 0,0 -0.176389,-1.322776 -0.08805,-0.705555 -0.176672,-0.61722 -0.264442,-0.617502 -0.264442,-0.617503 -0.352778,-0.61722 -0.352778,-0.529166 -0.441113,-0.529167 -0.529167,-0.441113 -0.617502,-0.528885 -0.61722,-0.352778 -0.705555,-0.352777 -0.705556,-0.264725 -0.793891,-0.264724 -0.881662,-0.176107 0,0 z"
     id="path7"
     inkscape:connector-curvature="0" />
  <path
     style="fill:#7ac742;fill-opacity:1;fill-rule:nonzero;stroke:none"
     d="m 54.504167,0.70555556 0,0 -0.08834,2.38125004 0,0 L 52.563889,2.5576389 50.888053,2.0284722 48.771387,1.4993056 46.478613,1.0583333 43.920833,0.61736111 41.275,0.26458333 38.629167,0.08819444 l 0,0 L 36.248058,0 33.601942,0 32.279167,0.08819444 30.77972,0.17638889 l -1.499164,0.17638889 -1.5875,0.26458333 -1.5875,0.35277778 -1.763889,0.44097221 -1.763889,0.5291667 -1.852084,0.7055555 -1.940277,0.79375 -1.940278,0.9701389 -2.116667,1.0583334 -2.116666,1.2347222 -0.352778,0.2645833 0,0 L 10.230556,8.2902778 8.4666667,9.7013889 6.7909722,11.1125 5.2916667,12.7 3.96875,14.2875 l -1.2347222,1.675694 -0.9701389,1.763889 -0.79375001,1.763889 0,0 -0.26458333,0.705556 -0.26458334,0.79375 L 0.26458333,21.960417 0.08819444,23.01875 0,24.165278 0,25.4 l 0.08819444,1.234722 0.26458334,1.234722 0,0 0.26458333,1.058334 0.44097219,1.058333 0.5291667,1.058333 0.6173611,0.97028 0,0 0.8819445,1.058334 0.8819444,0.969998 1.0583333,0.793891 1.1465278,0.793609 1.2347222,0.529166 1.2347223,0.529167 1.3229166,0.352778 1.4111108,0.176389 0,0 0.970139,0.08834 0.881945,-0.08834 0.881944,0 0.881945,-0.176389 0.79375,-0.176389 0.79375,-0.264442 0.705555,-0.352778 0.705556,-0.352778 0.705555,-0.441113 0.617361,-0.441114 0.529167,-0.528884 0.529167,-0.617502 0.440972,-0.617503 0.440972,-0.705555 0.352778,-0.793609 0.264583,-0.793609 0,0 0.264584,-1.146669 0.08819,-1.322775 -0.176389,-1.323058 -0.08819,-0.617361 -0.176389,-0.705556 -0.264584,-0.617361 -0.264583,-0.617361 -0.440972,-0.617361 -0.352778,-0.617361 -0.529167,-0.617361 -0.529166,-0.529167 -0.529167,-0.440972 -0.705555,-0.440972 0,0 -1.146528,-0.617362 -1.146528,-0.352777 -1.058333,-0.264584 -1.058334,0 -1.058333,0.0882 -0.970139,0.176389 -0.881944,0.352777 -0.79375,0.440973 0,0 L 9.525,21.519444 8.9958333,22.048611 8.5548611,22.577778 8.2020833,23.106944 7.9375,23.724306 l -0.1763889,0.617361 -0.1763889,0.705555 0,0.705556 0,0 0,0.529166 0.088195,0.617362 0.1763889,0.440972 0.1763888,0.529166 0.2645834,0.440832 0.2645833,0.441113 0.7055556,0.705555 0.7937503,0.529167 0.79375,0.352778 0.79375,0.264724 0.79375,0.08805 0,0 0.881944,-0.08805 0.970139,-0.264724 0,0 0.352778,-0.08805 0.352778,-0.176672 0.08819,-0.08805 0,0 0,0 0,0 0.264583,-0.264724 0.264584,-0.352778 0.176389,-0.352778 0,-0.352778 0,0 0,-0.529025 0,0 -0.176389,-0.264584 -0.176389,-0.264583 -0.176389,-0.176389 -0.264583,-0.176389 -0.264584,-0.176389 -0.264583,-0.08819 -0.264583,0 -0.352778,0 -0.08819,0.08819 -0.176389,0 -0.264583,0.0882 0,0 -0.529167,0.08819 -0.352777,0 0,0 -0.264584,-0.08819 -0.440972,-0.264583 -0.264583,-0.176389 -0.176389,-0.264584 -0.176389,-0.352777 0,-0.440973 0,0 0,0 0,-0.352777 0.08819,-0.264584 0.176389,-0.352778 0,0 0.352778,-0.440972 0.617361,-0.352778 0.79375,-0.176388 0.440972,-0.08819 0.440973,0 0,0 0.705555,0.08819 0.529167,0.176388 0.529167,0.264584 0.529166,0.264583 0.440972,0.440972 0.440973,0.440973 0.352777,0.529166 0.352778,0.529167 0,0 0.264584,0.617361 0.08819,0.617361 0.08819,0.705415 0,0.617502 -0.08819,0.617502 -0.264583,0.61722 -0.264584,0.61722 -0.352777,0.529449 0,0 -0.440973,0.528884 -0.529166,0.441114 -0.617361,0.264442 -0.617362,0.264724 -0.79375,0.176389 -0.79375,0.08834 -0.881944,0.08805 -0.970139,-0.08805 0,0 L 10.847917,32.896387 9.8777778,32.631944 9.0840278,32.279167 8.2020833,31.75 7.4965278,31.220833 6.8791667,30.515278 6.2618056,29.809722 5.7326389,28.927778 l 0,0 L 5.3798611,28.045833 5.0270833,27.163889 4.8506944,26.281944 4.7625,25.311806 l 0.088194,-0.881945 0.088195,-0.881944 0.2645833,-0.881945 0.3527778,-0.79375 0,0 L 6.0854167,20.990278 6.7027778,20.284722 7.2319444,19.579167 7.9375,19.05 8.5548611,18.609028 9.2604167,18.168056 9.9659722,17.903472 10.671528,17.638889 11.377083,17.4625 l 0.79375,-0.08819 1.322917,-0.0882 1.322917,0 1.058333,0.176389 0,0 0.79375,0.176389 0.79375,0.176389 0.79375,0.352778 0.79375,0.352777 0.881944,0.440973 0.881945,0.529166 0.881944,0.617361 0.79375,0.705556 0.79375,0.705555 0.79375,0.881945 0.79375,0.970139 0.705556,1.058333 0.705555,1.146528 0.617362,1.234722 0.529166,1.411111 0.440972,1.411111 5.291667,0 0,0 -0.176389,-0.97028 -0.08834,-1.146386 -0.08805,-0.617361 0.08805,-0.705556 0.08834,-0.617361 0.176389,-0.705556 0.264725,-0.617361 0.352777,-0.617361 0.440831,-0.529167 0.529167,-0.529166 0.705556,-0.352778 0.793891,-0.352778 0.881662,-0.176389 1.058333,0 0,0 1.146669,0 1.058334,0.176389 0.969997,0.264584 0.793891,0.264583 0.705556,0.440972 0.705556,0.440972 0.529166,0.529167 0.529167,0.617361 0.441113,0.617361 0.440831,0.617361 0.705556,1.322917 0.617502,1.322776 0.705556,1.323057 5.644444,0 0,0 -0.529449,-0.793609 -0.528884,-0.882085 -0.352778,-0.79375 -0.352778,-0.881945 -0.264724,-0.79375 -0.176389,-0.79375 -0.08834,-0.79375 0.08834,-0.79375 0,0 0.08834,-0.529166 0.176107,-0.440972 0.176671,-0.352778 0.264442,-0.352778 0.264443,-0.264583 0.352777,-0.176389 0.264725,-0.176389 0.440831,-0.08819 0.793891,-0.176388 0.969998,0 2.293338,0.264583 0,0 1.675553,0.176389 1.852224,0.08819 0,0 1.322776,0 1.234722,-0.08819 1.234722,-0.176389 1.146669,-0.176389 1.058334,-0.176389 1.058333,-0.352778 0.969998,-0.264583 0.969998,-0.352778 0,0 1.852224,-0.881944 0.705556,-0.352778 0.441113,-0.440972 0,0 0.264442,-0.352778 0.176389,-0.440972 0.08805,-0.176389 0,0 0.352778,-1.058333 0,0 0,-0.352778 -0.08805,0 -0.08805,0 -0.176671,0.08819 0,0 -1.058333,0.529167 -1.411111,0.529167 -0.881662,0.264583 -0.882227,0.264583 -0.881662,0.08819 -0.882227,0.08819 0,0 -0.528884,0 -0.705556,-0.08819 -1.411111,-0.352778 -1.499447,-0.440972 -1.499446,-0.617361 -2.557498,-1.146528 -1.323058,-0.617361 0,-0.08819 0,0 -1.23444,-2.910416 0,0 1.499165,0.970138 1.499164,0.881945 1.499447,0.79375 1.322775,0.617361 1.323058,0.529167 1.146387,0.440972 1.146669,0.264583 1.058333,0.0882 0,0 1.146669,0.08819 0.969998,-0.176389 0.969997,-0.264583 0.882227,-0.264583 0.793609,-0.352778 0.617502,-0.440972 1.058333,-0.617362 0,0 0.264443,-0.264583 0.08833,-0.176389 0,-0.264583 0,0 L 73.201389,11.377083 72.495833,9.2604167 72.143056,8.1138889 71.701942,7.14375 71.261111,6.35 70.82028,5.7326389 l 0,0 L 70.290831,5.2034722 70.026389,5.0270833 69.673611,4.7625 l 0,0 L 68.791667,4.3215278 67.821387,3.8805556 65.528613,3.0868056 63.147222,2.38125 60.677778,1.7638889 58.473058,1.3229167 56.532498,0.97013889 54.592502,0.61736111 l 0,0 -0.08834,0 0,0.0881944 0,0 z m 7.055555,8.55486114 0,0 0.08834,-0.8819445 0.264442,-0.79375 0.441113,-0.79375 0.528885,-0.6173611 0,0 0.705555,-0.5291667 0.793891,-0.3527777 0.793892,-0.2645834 0.881662,0 0,0 0.882226,0.088195 0.793609,0.2645833 0.793609,0.4409722 0.617502,0.6173611 0.529167,0.6173612 0.352778,0.79375 0.264442,0.79375 0,0.8819444 0,0 -0.08805,0.881944 -0.264725,0.79375 -0.440831,0.79375 -0.617502,0.617362 0,0 -0.61722,0.529166 -0.793891,0.352778 -0.793609,0.264583 -0.881944,0 0,0 -0.881945,-0.08819 -0.881944,-0.264583 -0.705556,-0.440973 -0.61722,-0.617361 -0.529449,-0.617361 -0.352778,-0.79375 -0.264442,-0.79375 0,-0.8819443 0,0 z"
     id="path9"
     inkscape:connector-curvature="0" />
  <path
     style="fill:#7ac742;fill-opacity:1;fill-rule:nonzero;stroke:none"
     d="m 66.057498,6.2618056 0,0 -0.61722,0.088194 -0.61722,0.088194 -0.529449,0.2645834 -0.440831,0.4409722 0,0 -0.440831,0.4409722 -0.264725,0.5291667 -0.176389,0.5291667 -0.08834,0.6173611 0,0 0,0.6173611 0.176671,0.5291662 0.264442,0.529167 0.352778,0.529167 0.441113,0.352778 0.528885,0.352777 0.529449,0.176389 0.61722,0.08819 0,0 0.61722,-0.08819 0.617502,-0.08819 0.529166,-0.264584 0.441114,-0.440972 0,0 0.440831,-0.440972 0.264724,-0.529167 0.176107,-0.529166 0.08834,-0.6173614 0,0 0,-0.6173612 L 68.791667,8.2902778 68.526942,7.7611111 68.174164,7.2319444 67.733333,6.8791667 67.204167,6.6145833 66.675,6.35 l -0.617502,-0.088194 0,0 z m 0.441113,3.3513888 0,0 -0.529167,0 -0.440831,-0.2645833 -0.264724,-0.2645833 -0.08805,-0.1763889 0,-0.1763889 0,0 0,-0.1763889 0.08805,-0.1763889 0.264724,-0.2645833 0.440831,-0.1763889 0.529167,-0.088194 0,0 0.529167,0.088194 0.440831,0.1763889 0.352778,0.2645833 0.08834,0.1763889 0,0.1763889 0,0 0,0.1763889 -0.08834,0.1763889 -0.352778,0.2645833 -0.440831,0.2645833 -0.529167,0 0,0 z"
     id="path11"
     inkscape:connector-curvature="0" />
</svg>
