<?xml version="1.0" encoding="UTF-8" standalone="no"?>
<svg
   xmlns:dc="http://purl.org/dc/elements/1.1/"
   xmlns:cc="http://creativecommons.org/ns#"
   xmlns:rdf="http://www.w3.org/1999/02/22-rdf-syntax-ns#"
   xmlns:svg="http://www.w3.org/2000/svg"
   xmlns="http://www.w3.org/2000/svg"
   xmlns:sodipodi="http://sodipodi.sourceforge.net/DTD/sodipodi-0.dtd"
   xmlns:inkscape="http://www.inkscape.org/namespaces/inkscape"
   version="1.0"
   width="128.67569mm"
   height="71.613892mm"
   id="svg2"
   inkscape:version="0.91 r13725"
   viewBox="0 0 128.67569 71.613892"
   sodipodi:docname="SUSE-logo-2.svg">
  <metadata
     id="metadata53">
    <rdf:RDF>
      <cc:Work
         rdf:about="">
        <dc:format>image/svg+xml</dc:format>
        <dc:type
           rdf:resource="http://purl.org/dc/dcmitype/StillImage" />
        <dc:title></dc:title>
      </cc:Work>
    </rdf:RDF>
  </metadata>
  <sodipodi:namedview
     pagecolor="#ffffff"
     bordercolor="#666666"
     borderopacity="1"
     objecttolerance="10"
     gridtolerance="10"
     guidetolerance="10"
     inkscape:pageopacity="0"
     inkscape:pageshadow="2"
     inkscape:window-width="703"
     inkscape:window-height="480"
     id="namedview51"
     inkscape:document-units="mm"
     showgrid="false"
     inkscape:zoom="0.71501031"
     inkscape:cx="227.96874"
     inkscape:cy="126.875"
     inkscape:window-x="0"
     inkscape:window-y="0"
     inkscape:window-maximized="0"
     inkscape:current-layer="svg2" />
  <defs
     id="defs4">
    <pattern
       id="WMFhbasepattern"
       patternUnits="userSpaceOnUse"
       width="6"
       height="6"
       x="0"
       y="0" />
  </defs>
  <path
     style="fill:#000000;fill-opacity:1;fill-rule:nonzero;stroke:none"
     d="m 26.9875,64.558332 0.529167,0 1.499164,4.7625 1.675836,-4.7625 0.617502,0 -2.028613,5.732498 -0.529167,0 -1.5875,-4.586112 -1.499306,4.586112 -0.529166,0 -2.028473,-5.732498 0.705556,0 1.5875,4.7625 1.5875,-4.7625 z"
     id="path7"
     inkscape:connector-curvature="0" />
  <path
     style="fill:#000000;fill-opacity:1;fill-rule:nonzero;stroke:none"
     d="m 33.601942,69.761945 0,0 0.352778,0 0.352778,-0.08834 0.352778,-0.176389 0.264724,-0.264725 0.352778,0.352778 0,0 -0.352778,0.264724 -0.352778,0.264725 -0.440831,0.176107 -0.617502,0.08834 0,0 -0.352778,-0.08834 -0.440831,-0.08805 -0.352778,-0.176389 -0.264724,-0.264442 -0.264725,-0.352778 -0.176106,-0.352777 -0.176671,-0.441114 0,-0.441113 0,0 0,-0.440831 0.176671,-0.440831 0.176106,-0.352778 0.176671,-0.352778 0.352778,-0.264724 0.264442,-0.176389 0.441114,-0.08834 0.440831,-0.08805 0,0 0.440831,0.08805 0.352778,0.08834 0.352778,0.176389 0.264724,0.264724 0.176389,0.352778 0.176389,0.352778 0.08805,0.440831 0.08834,0.440831 0,0 0,0.176671 -3.351389,0 0,0 0.08805,0.352778 0.08834,0.264442 0.176389,0.264442 0.176388,0.176671 0.441114,0.264443 0.528884,0.08834 0,0 z m 1.235005,-1.852224 0,0 -0.176671,-0.529167 -0.264443,-0.440831 -0.176389,-0.176671 -0.176388,-0.176107 -0.264443,-0.08834 -0.352777,0 0,0 -0.264725,0 -0.176389,0.08834 -0.441113,0.352778 -0.264442,0.440831 -0.176389,0.529167 2.734169,0 z"
     id="path9"
     inkscape:connector-curvature="0" />
  <path
     style="fill:#000000;fill-opacity:1;fill-rule:nonzero;stroke:none"
     d="m 38.981944,66.851387 -0.264442,-0.529166 0,0 0.705556,-0.176389 0.881662,-0.176389 0,0 0.352778,0.08805 0.352778,0.08834 0.352777,0.08834 0.264725,0.176107 0.176389,0.264724 0.176389,0.264725 0.08805,0.352778 0,0.440831 0,2.557498 -0.61722,0 0,-0.705556 0,0 -0.264442,0.264724 -0.352778,0.264725 -0.352778,0.176107 -0.529449,0.08834 0,0 -0.61722,-0.08834 -0.441113,-0.264443 -0.176107,-0.176389 -0.176671,-0.264724 -0.08805,-0.264442 -0.08805,-0.264442 0,0 0.08805,-0.352778 0.08805,-0.264725 0.176671,-0.264724 0.176107,-0.176107 0.264724,-0.176671 0.264725,-0.08805 0.793609,-0.08805 0,0 0.705555,0.08805 0.529167,0.08805 0,-0.08805 0,0 -0.08834,-0.529167 -0.264442,-0.352778 -0.352778,-0.176389 -0.529166,-0.08805 0,0 -0.705556,0.08805 -0.529167,0.176389 0,0 z m 0,2.116667 0,0 0.08834,0.352778 0.264442,0.264442 0.352778,0.176671 0.352778,0.08805 0,0 0.61722,-0.08805 0.441113,-0.264724 0.264442,-0.352778 0.08834,-0.176389 0,-0.264442 0,-0.352778 0,0 -0.529167,-0.176671 -0.705555,-0.08805 0,0 -0.529167,0.08805 -0.352778,0.176671 -0.264442,0.264442 -0.08834,0.352778 0,0 z"
     id="path11"
     inkscape:connector-curvature="0" />
  <path
     style="fill:#000000;fill-opacity:1;fill-rule:nonzero;stroke:none"
     d="m 46.65472,70.29083 0,-0.881663 0,0 -0.352778,0.352778 -0.352778,0.264442 -0.440831,0.264443 -0.440831,0.08834 0,0 -0.441113,-0.08834 -0.352778,-0.08805 -0.352778,-0.176389 -0.264442,-0.264442 -0.264724,-0.264724 -0.176389,-0.440831 -0.176389,-0.441114 0,-0.441113 0,0 0,-0.528885 0.176389,-0.441113 0.176389,-0.352778 0.264724,-0.264442 0.264442,-0.264724 0.352778,-0.176389 0.352778,-0.08834 0.441113,-0.08805 0,0 0.528885,0.08805 0.441113,0.176671 0.352778,0.264443 0.264442,0.352777 0,-2.469444 0.617502,0 0,5.908887 -0.617502,0 z m -1.499164,-3.79222 0,0 -0.352778,0.08834 -0.264725,0.08805 -0.264442,0.08805 -0.176389,0.176671 -0.176389,0.264442 -0.176389,0.264442 -0.08805,0.352778 0,0.352778 0,0 0,0.352778 0.08805,0.264724 0.176389,0.352778 0.176389,0.176389 0.264725,0.176389 0.176106,0.176389 0.264725,0.08834 0.352778,0 0,0 0.264724,0 0.264442,-0.08834 0.264442,-0.176389 0.264725,-0.176389 0.176389,-0.264442 0.08834,-0.264725 0.176107,-0.264724 0,-0.352778 0,0 0,-0.352778 -0.176107,-0.352778 -0.08834,-0.264442 -0.176389,-0.264442 -0.264725,-0.176671 -0.264442,-0.08805 -0.264442,-0.08805 -0.264724,-0.08834 0,0 z"
     id="path13"
     inkscape:connector-curvature="0" />
  <path
     style="fill:#000000;fill-opacity:1;fill-rule:nonzero;stroke:none"
     d="m 48.771387,66.851387 -0.176107,-0.529166 0,0 0.705556,-0.176389 0.793608,-0.176389 0,0 0.440832,0.08805 0.352777,0.08834 0.264725,0.08834 0.264724,0.176107 0.176107,0.264724 0.176671,0.264725 0.08805,0.352778 0,0.440831 0,2.557498 -0.617502,0 0,-0.705556 0,0 -0.176107,0.264724 -0.352777,0.264725 -0.441114,0.176107 -0.529166,0.08834 0,0 -0.529167,-0.08834 -0.529167,-0.264443 -0.176389,-0.176389 -0.176388,-0.264724 -0.08805,-0.264442 0,-0.264442 0,0 0,-0.352778 0.08805,-0.264725 0.176388,-0.264724 0.176389,-0.176107 0.264725,-0.176671 0.352778,-0.08805 0.705555,-0.08805 0,0 0.705556,0.08805 0.528884,0.08805 0,-0.08805 0,0 -0.08805,-0.529167 -0.176389,-0.352778 -0.441113,-0.176389 -0.528885,-0.08805 0,0 -0.617502,0.08805 -0.617502,0.176389 0,0 z m 0.08834,2.116667 0,0 0.08834,0.352778 0.176106,0.264442 0.352778,0.176671 0.441114,0.08805 0,0 0.529166,-0.08805 0.440831,-0.264724 0.264725,-0.352778 0.08805,-0.176389 0.08834,-0.264442 0,-0.352778 0,0 -0.61722,-0.176671 -0.617503,-0.08805 0,0 -0.529166,0.08805 -0.441114,0.176671 -0.176106,0.264442 -0.08834,0.352778 0,0 z"
     id="path15"
     inkscape:connector-curvature="0" />
  <path
     style="fill:#000000;fill-opacity:1;fill-rule:nonzero;stroke:none"
     d="m 55.298058,70.379165 0,0 -0.529449,-0.08834 -0.440831,-0.264443 -0.352778,-0.264442 -0.264724,-0.352778 0,2.116667 -0.61722,0 0,-5.468338 0.61722,0 0,0.882227 0,0 0.264724,-0.352778 0.352778,-0.352778 0.440831,-0.176671 0.529449,-0.08805 0,0 0.352778,0.08805 0.352777,0.08834 0.352778,0.176389 0.352778,0.264724 0.264442,0.264442 0.176389,0.352778 0.08805,0.441113 0.08834,0.528885 0,0 -0.08834,0.441113 -0.08805,0.441114 -0.176389,0.352777 -0.264442,0.352778 -0.352778,0.264442 -0.352778,0.176389 -0.352777,0.08805 -0.352778,0.08834 0,0 z m -0.08834,-3.880555 0,0 -0.264442,0.08834 -0.352778,0.08805 -0.176671,0.08805 -0.264442,0.176671 -0.176389,0.264442 -0.176389,0.264442 -0.08834,0.352778 0,0.352778 0,0 0,0.352778 0.08834,0.264724 0.176389,0.264725 0.176389,0.264442 0.264442,0.176389 0.176671,0.176389 0.352778,0.08834 0.264442,0 0,0 0.264442,0 0.264725,-0.08834 0.264724,-0.176389 0.264443,-0.176389 0.176388,-0.176389 0.08805,-0.264725 0.08834,-0.352777 0.08834,-0.352778 0,0 -0.08834,-0.352778 -0.08834,-0.352778 -0.08805,-0.264442 -0.176388,-0.264442 -0.264443,-0.176671 -0.264724,-0.08805 -0.264725,-0.08805 -0.264442,-0.08834 0,0 z"
     id="path17"
     inkscape:connector-curvature="0" />
  <path
     style="fill:#000000;fill-opacity:1;fill-rule:nonzero;stroke:none"
     d="m 59.178613,69.05639 0,0 0.08805,0.352777 0.08805,0.176107 0.264724,0.176671 0.264725,0 0,0 0.264442,0 0.352778,-0.176671 0,0.529449 0,0 -0.352778,0.176107 -0.441113,0 0,0 -0.440831,0 -0.352778,-0.264443 -0.176389,-0.176389 -0.08834,-0.176388 -0.08805,-0.529167 0,-2.557498 -0.617502,0 0,-0.529449 0.617502,0 0,-1.23444 0.617502,0 0,1.23444 1.322776,0 0,0.529449 -1.322776,0 0,2.469445 z"
     id="path19"
     inkscape:connector-curvature="0" />
  <path
     style="fill:#000000;fill-opacity:1;fill-rule:nonzero;stroke:none"
     d="m 61.383333,70.29083 0,-0.881663 0.793609,0 0,0.881663 -0.793609,0 z"
     id="path21"
     inkscape:connector-curvature="0" />
  <path
     style="fill:#000000;fill-opacity:1;fill-rule:nonzero;stroke:none"
     d="m 67.204167,70.29083 -0.705556,0 0,-2.292774 -2.293055,-3.439724 0.705555,0 1.940278,2.822222 1.940278,-2.822222 0.705555,0 -2.293055,3.439724 0,2.292774 z"
     id="path23"
     inkscape:connector-curvature="0" />
  <path
     style="fill:#000000;fill-opacity:1;fill-rule:nonzero;stroke:none"
     d="m 71.349164,70.379165 0,0 -0.440831,-0.08834 -0.440831,-0.08805 -0.352778,-0.264724 -0.352777,-0.264442 -0.264725,-0.264443 -0.176389,-0.441113 -0.08833,-0.352778 -0.08805,-0.441113 0,0 0.08805,-0.440831 0.08833,-0.440831 0.176389,-0.352778 0.264725,-0.352778 0.352777,-0.264724 0.352778,-0.176389 0.440831,-0.08834 0.440831,-0.08805 0,0 0.441114,0.08805 0.441113,0.08834 0.352778,0.176389 0.352778,0.264724 0.264442,0.352778 0.176389,0.352778 0.08805,0.440831 0.08834,0.440831 0,0 -0.08834,0.441113 -0.08805,0.352778 -0.176389,0.441113 -0.264442,0.264443 -0.352778,0.264442 -0.352778,0.264724 -0.441113,0.08805 -0.441114,0.08834 0,0 z m 0,-3.880555 0,0 -0.352777,0.08834 -0.264443,0.08805 -0.264442,0.08805 -0.264724,0.264724 -0.176389,0.176389 -0.08834,0.352778 -0.08805,0.264442 0,0.352778 0,0 0,0.352778 0.08805,0.264724 0.08834,0.264725 0.264442,0.264442 0.176671,0.176389 0.264442,0.176389 0.264443,0.08834 0.352777,0 0,0 0.352778,0 0.264725,-0.08834 0.264724,-0.176389 0.264442,-0.176389 0.176389,-0.264442 0.08805,-0.264725 0.08834,-0.264724 0.08834,-0.352778 0,0 -0.08834,-0.352778 -0.08834,-0.264442 -0.08805,-0.264442 -0.264724,-0.264725 -0.176107,-0.264724 -0.264724,-0.08805 -0.264725,-0.08805 -0.352778,-0.08834 0,0 z"
     id="path25"
     inkscape:connector-curvature="0" />
  <path
     style="fill:#000000;fill-opacity:1;fill-rule:nonzero;stroke:none"
     d="m 77.523058,66.057496 0.61722,0 0,4.233334 -0.61722,0 0,-0.793609 0,0 -0.264725,0.352777 -0.264724,0.264725 -0.440831,0.176107 -0.440831,0.08834 0,0 -0.441114,-0.08834 -0.264442,-0.08805 -0.264724,-0.08805 -0.264725,-0.264725 -0.176106,-0.176388 -0.08834,-0.352778 -0.08834,-0.264442 -0.08805,-0.352778 0,-2.646116 0.617502,0 0,2.469445 0,0 0.08805,0.529449 0.264724,0.352777 0.352778,0.264443 0.528884,0.08834 0,0 0.441114,-0.08834 0.441113,-0.264443 0.264442,-0.441113 0.08834,-0.529167 0,-2.381391 z"
     id="path27"
     inkscape:connector-curvature="0" />
  <path
     style="fill:#000000;fill-opacity:1;fill-rule:nonzero;stroke:none"
     d="m 83.079167,70.29083 0,0 -0.441114,0 -0.440831,-0.08805 -0.440831,-0.264724 -0.441113,-0.264442 0.352778,-0.441114 0,0 0.352777,0.264725 0.352778,0.176389 0.352778,0.08834 0.352778,0 0,0 0.352777,0 0.352778,-0.176671 0.176389,-0.176107 0,-0.264724 0,0 0,0 -0.08805,-0.264725 -0.176671,-0.264442 -0.352778,-0.08834 -0.440831,-0.176107 0,0 -0.440831,-0.08834 -0.441114,-0.264442 -0.176389,-0.08834 -0.176388,-0.176389 -0.08834,-0.264725 0,-0.264442 0,0 0,0 0,-0.264442 0.08834,-0.264725 0.08833,-0.176388 0.176107,-0.176389 0.441113,-0.264725 0.61722,-0.08805 0,0 0.352778,0.08805 0.441113,0.08834 0.352778,0.08834 0.352778,0.264443 -0.264442,0.441113 0,0 -0.617503,-0.352778 -0.617502,-0.08834 0,0 -0.352778,0.08834 -0.264442,0.08805 -0.176389,0.176389 0,0.264443 0,0 0,0 0.08805,0.264724 0.176671,0.176389 0.793609,0.264442 0,0 0.440831,0.176671 0.441113,0.264442 0.176389,0.176389 0.176389,0.176389 0.08834,0.176389 0,0.264725 0,0 0,0 0,0.264442 -0.08834,0.264442 -0.176389,0.264724 -0.176389,0.176389 -0.441113,0.176389 -0.61722,0.08805 0,0 z"
     id="path29"
     inkscape:connector-curvature="0" />
  <path
     style="fill:#000000;fill-opacity:1;fill-rule:nonzero;stroke:none"
     d="m 88.547222,66.057496 0.617502,0 0,4.233334 -0.617502,0 0,-0.793609 0,0 -0.176389,0.352777 -0.352777,0.264725 -0.352778,0.176107 -0.529167,0.08834 0,0 -0.352778,-0.08834 -0.352777,-0.08805 -0.264725,-0.08805 -0.176107,-0.264725 -0.176671,-0.176388 -0.176106,-0.352778 -0.08834,-0.264442 0,-0.352778 0,-2.646116 0.61722,0 0,2.469445 0,0 0.08834,0.529449 0.176389,0.352777 0.440831,0.264443 0.441113,0.08834 0,0 0.529167,-0.08834 0.352777,-0.264443 0.264725,-0.441113 0.08805,-0.529167 0,-2.381391 z"
     id="path31"
     inkscape:connector-curvature="0" />
  <path
     style="fill:#000000;fill-opacity:1;fill-rule:nonzero;stroke:none"
     d="m 92.339724,70.379165 0,0 -0.441113,-0.08834 -0.352778,-0.08805 -0.441113,-0.264724 -0.264442,-0.264442 -0.264442,-0.264443 -0.176672,-0.441113 -0.176106,-0.352778 0,-0.441113 0,0 0,-0.440831 0.176106,-0.440831 0.176672,-0.352778 0.264442,-0.352778 0.264442,-0.264724 0.441113,-0.176389 0.352778,-0.08834 0.441113,-0.08805 0,0 0.528885,0.08805 0.441113,0.176671 0.441114,0.176107 0.264442,0.352778 -0.352778,0.352778 0,0 -0.264442,-0.176107 -0.352778,-0.264725 -0.264724,-0.08805 -0.440832,-0.08834 0,0 -0.264724,0.08834 -0.352778,0.08805 -0.176389,0.08805 -0.264442,0.264724 -0.176671,0.176389 -0.176107,0.352778 0,0.264442 -0.08834,0.352778 0,0 0.08834,0.352778 0.08805,0.264724 0.08805,0.264725 0.176671,0.264442 0.264442,0.176389 0.264443,0.176389 0.264724,0.08834 0.352778,0 0,0 0.352778,0 0.352777,-0.176671 0.264725,-0.176107 0.264442,-0.264724 0.441113,0.352778 0,0 -0.352777,0.352777 -0.441114,0.264725 -0.441113,0.176107 -0.528885,0.08834 0,0 z"
     id="path33"
     inkscape:connector-curvature="0" />
  <path
     style="fill:#000000;fill-opacity:1;fill-rule:nonzero;stroke:none"
     d="m 96.749164,70.379165 0,0 -0.440831,-0.08834 -0.440831,-0.08805 L 95.514724,69.938052 95.25,69.67361 l -0.264724,-0.264443 -0.264443,-0.441113 -0.08834,-0.352778 0,-0.441113 0,0 0,-0.440831 0.08834,-0.440831 0.264443,-0.352778 0.264724,-0.352778 0.264724,-0.264724 0.352778,-0.176389 0.440831,-0.08834 0.440831,-0.08805 0,0 0.529449,0.08805 0.440831,0.176671 0.352778,0.176107 0.352778,0.352778 -0.440831,0.352778 0,0 -0.264725,-0.176107 -0.264724,-0.264725 -0.352778,-0.08805 -0.352778,-0.08834 0,0 -0.352777,0.08834 -0.264443,0.08805 -0.264442,0.08805 -0.176671,0.264724 -0.176107,0.176389 -0.176671,0.352778 -0.08805,0.264442 0,0.352778 0,0 0,0.352778 0.08805,0.264724 0.176671,0.264725 0.176107,0.264442 0.176671,0.176389 0.264442,0.176389 0.352778,0.08834 0.264442,0 0,0 0.441114,0 0.264442,-0.176671 0.352778,-0.176107 0.264724,-0.264724 0.352778,0.352778 0,0 -0.352778,0.352777 -0.352778,0.264725 -0.440831,0.176107 -0.529449,0.08834 0,0 z"
     id="path35"
     inkscape:connector-curvature="0" />
  <path
     style="fill:#000000;fill-opacity:1;fill-rule:nonzero;stroke:none"
     d="m 101.07083,69.761945 0,0 0.44112,0 0.35277,-0.08834 0.26445,-0.176389 0.26444,-0.264725 0.35278,0.352778 0,0 -0.26445,0.264724 -0.44111,0.264725 -0.44083,0.176107 -0.52917,0.08834 0,0 -0.44111,-0.08834 -0.35278,-0.08805 -0.352776,-0.176389 -0.352777,-0.264442 -0.264443,-0.352778 -0.176388,-0.352777 -0.08805,-0.441114 -0.08834,-0.441113 0,0 0.08834,-0.440831 0.08805,-0.440831 0.176388,-0.352778 0.264443,-0.352778 0.264724,-0.264724 0.352779,-0.176389 0.35278,-0.08834 0.44083,-0.08805 0,0 0.44111,0.08805 0.35278,0.08834 0.35278,0.176389 0.26444,0.264724 0.26472,0.352778 0.17639,0.352778 0.0883,0.440831 0,0.440831 0,0 0,0.176671 -3.351673,0 0,0 0.08834,0.352778 0.08834,0.264442 0.176106,0.264442 0.176676,0.176671 0.44083,0.264443 0.52916,0.08834 0,0 z m 1.23473,-1.852224 0,0 -0.0881,-0.529167 -0.26472,-0.440831 -0.17639,-0.176671 -0.26444,-0.176107 -0.26473,-0.08834 -0.26472,0 0,0 -0.26444,0 -0.26445,0.08834 -0.44111,0.352778 -0.264442,0.440831 -0.176671,0.529167 2.734173,0 z"
     id="path37"
     inkscape:connector-curvature="0" />
  <path
     style="fill:#000000;fill-opacity:1;fill-rule:nonzero;stroke:none"
     d="m 105.74528,69.761945 0,0 0.44083,0 0.26473,-0.08834 0.35277,-0.176389 0.26445,-0.264725 0.35277,0.352778 0,0 -0.26444,0.264724 -0.44111,0.264725 -0.44112,0.176107 -0.52888,0.08834 0,0 -0.44111,-0.08834 -0.35278,-0.08805 -0.35278,-0.176389 -0.35278,-0.264442 -0.26444,-0.352778 -0.17667,-0.352777 -0.0881,-0.441114 -0.0881,-0.441113 0,0 0.0881,-0.440831 0.0881,-0.440831 0.17667,-0.352778 0.26444,-0.352778 0.26445,-0.264724 0.35277,-0.176389 0.35278,-0.08834 0.44111,-0.08805 0,0 0.44112,0.08805 0.35278,0.08834 0.35277,0.176389 0.26445,0.264724 0.26444,0.352778 0.17667,0.352778 0.088,0.440831 0,0.440831 0,0 0,0.176671 -3.35139,0 0,0 0.0883,0.352778 0.088,0.264442 0.17639,0.264442 0.17639,0.176671 0.44083,0.264443 0.52945,0.08834 0,0 z m 1.23444,-1.852224 0,0 -0.088,-0.529167 -0.26473,-0.440831 -0.26444,-0.176671 -0.17639,-0.176107 -0.26472,-0.08834 -0.26445,0 0,0 -0.26444,0 -0.26472,0.08834 -0.44083,0.352778 -0.26473,0.440831 -0.17639,0.529167 2.73389,0 z"
     id="path39"
     inkscape:connector-curvature="0" />
  <path
     style="fill:#000000;fill-opacity:1;fill-rule:nonzero;stroke:none"
     d="m 111.91861,70.29083 0,-0.881663 0,0 -0.26444,0.352778 -0.35278,0.264442 -0.44111,0.264443 -0.52889,0.08834 0,0 -0.35278,-0.08834 -0.35277,-0.08805 -0.35278,-0.176389 -0.35278,-0.264442 -0.26472,-0.264724 -0.17639,-0.440831 -0.0883,-0.441114 -0.088,-0.441113 0,0 0.088,-0.528885 0.0883,-0.441113 0.17639,-0.352778 0.26472,-0.264442 0.35278,-0.264724 0.35278,-0.176389 0.35277,-0.08834 0.35278,-0.08805 0,0 0.52889,0.08805 0.44111,0.176671 0.35278,0.264443 0.26444,0.352777 0,-2.469444 0.6175,0 0,5.908887 -0.6175,0 z m -1.49917,-3.79222 0,0 -0.26472,0.08834 -0.26444,0.08805 -0.26444,0.08805 -0.26473,0.176671 -0.17639,0.264442 -0.0883,0.264442 -0.0881,0.352778 0,0.352778 0,0 0,0.352778 0.0881,0.264724 0.0883,0.352778 0.26444,0.176389 0.17668,0.176389 0.26444,0.176389 0.26444,0.08834 0.26472,0 0,0 0.26473,0 0.35278,-0.08834 0.26444,-0.176389 0.17639,-0.176389 0.17639,-0.264442 0.17639,-0.264725 0.088,-0.264724 0,-0.352778 0,0 0,-0.352778 -0.088,-0.352778 -0.17639,-0.264442 -0.17639,-0.264442 -0.17639,-0.176671 -0.26444,-0.08805 -0.35278,-0.08805 -0.26473,-0.08834 0,0 z"
     id="path41"
     inkscape:connector-curvature="0" />
  <path
     style="fill:#000000;fill-opacity:1;fill-rule:nonzero;stroke:none"
     d="m 113.77083,70.29083 0,-0.881663 0.70556,0 0,0.881663 -0.70556,0 z"
     id="path43"
     inkscape:connector-curvature="0" />
  <path
     style="fill:#000000;fill-opacity:1;fill-rule:nonzero;stroke:none"
     d="m 97.807498,51.593607 0,0 -0.08805,0.705556 -0.08805,0.705555 -0.176671,0.793892 -0.264442,0.61722 -0.352778,0.705555 -0.352778,0.617502 -0.441113,0.617503 -0.528885,0.528884 -0.529448,0.529449 -0.61722,0.440831 -0.61722,0.352778 -0.705556,0.352778 -0.793891,0.264724 -0.793891,0.176107 -0.793609,0.176671 -0.881945,0 0,0 -14.993055,0 0,-5.556391 14.993055,0 0,0 0.352778,-0.08805 0.352778,-0.08833 0.352778,-0.176389 0.264442,-0.176389 0.264724,-0.352778 0.264725,-0.352778 0.08805,-0.352777 0.08805,-0.441114 0,0 0,-0.528884 -0.176107,-0.352778 -0.176671,-0.352778 -0.264442,-0.352777 -0.352778,-0.264725 -0.352778,-0.264724 -0.529167,-0.08805 -0.529166,-0.176389 0,0 -9.260558,-1.322775 0,0 -0.881662,-0.176671 -0.793891,-0.264442 -0.793892,-0.264443 -0.705555,-0.352777 -0.61722,-0.441114 -0.529167,-0.441113 -0.529166,-0.440831 -0.441114,-0.529167 -0.440831,-0.529167 -0.264724,-0.617502 -0.352778,-0.61722 -0.176107,-0.61722 -0.176671,-0.617502 -0.176107,-0.705556 -0.08834,-1.323057 0,0 0.08834,-0.705556 0.08805,-0.705555 0.176389,-0.793609 0.264442,-0.617503 0.264724,-0.705555 0.440831,-0.61722 0.441114,-0.61722 0.441113,-0.529449 0.61722,-0.528884 0.61722,-0.441114 0.617502,-0.352778 0.705556,-0.352777 0.793609,-0.264443 0.793891,-0.176671 0.793891,-0.176106 0.881662,0 0,0 14.993338,0 0,5.556109 -14.993338,0 0,0 -0.352778,0.08834 -0.352777,0.08805 -0.352778,0.176389 -0.352778,0.176389 -0.264442,0.352778 -0.176389,0.352778 -0.176389,0.352778 0,0.440831 0,0 0,0.529449 0.08834,0.352777 0.264442,0.352778 0.264442,0.352778 0.264725,0.264442 0.440831,0.176389 0.529449,0.176389 0.528884,0.176389 0,0 9.260558,1.323058 0,0 0.881944,0.176106 0.793609,0.264725 0.705556,0.264724 0.705555,0.352778 0.617502,0.352778 0.617503,0.528884 0.528884,0.441113 0.441113,0.529167 0.352778,0.529167 0.352778,0.61722 0.264442,0.617502 0.264725,0.617502 0.176389,0.61722 0.08833,0.705556 0.176107,1.322775 0,0 z M 65.70472,32.367501 l 0,15.963053 0,0 0,0.617502 -0.08805,0.61722 -0.176389,0.529167 -0.176389,0.529167 -0.264725,0.529166 -0.352777,0.529167 -0.352778,0.441113 -0.352778,0.440831 -0.440831,0.440831 -0.440831,0.264725 -0.529449,0.352778 -0.528884,0.264724 -0.529449,0.176107 -0.61722,0.176671 -0.529167,0.08805 -0.617502,0 0,0 -0.61722,0 -0.61722,-0.08805 -0.617502,-0.176671 -0.529167,-0.176107 -0.529167,-0.264724 -0.529166,-0.352778 -0.441114,-0.264725 -0.440831,-0.440831 -0.352778,-0.440831 -0.352777,-0.441113 -0.352778,-0.529167 -0.264725,-0.529166 -0.176106,-0.529167 -0.08834,-0.529167 -0.176389,-0.61722 0,-0.617502 0,-15.963053 -5.820833,0 0,15.610275 0,0 0.08834,1.234722 0.176107,1.146669 0.264725,1.146387 0.440831,1.058333 0.441113,1.058334 0.61722,0.97028 0.705556,0.881662 0.793891,0.882227 0.793891,0.793608 0.881662,0.617503 1.058333,0.61722 0.97028,0.529166 1.146387,0.352778 1.146669,0.352778 1.146669,0.176389 1.23444,0 0,0 1.146669,0 1.234722,-0.176389 1.146387,-0.352778 1.058333,-0.352778 1.058333,-0.529166 0.97028,-0.61722 0.881945,-0.617503 0.881944,-0.793608 0.705556,-0.882227 0.705555,-0.881662 0.617502,-0.97028 0.440832,-1.058334 0.440831,-1.058333 0.264724,-1.146387 0.176389,-1.146669 0.08834,-1.234722 0,-15.610275 -5.821116,0 z m 62.88278,24.958886 0,0 0,-0.352777 -0.17639,-0.352778 -0.17639,-0.264442 -0.17639,-0.264725 -0.26472,-0.264724 -0.35278,-0.176107 -0.35278,-0.08834 -0.35277,0 0,0 -0.35278,0 -0.35278,0.08834 -0.35278,0.176107 -0.26444,0.264724 -0.26444,0.264725 -0.0883,0.264442 -0.17639,0.352778 0,0.352777 0,0 0,0.441114 0.17639,0.264442 0.0883,0.352778 0.26444,0.264442 0.26444,0.264724 0.35278,0.176389 0.35278,0.08834 0.35278,0 0,0 0.35277,0 0.35278,-0.176671 0.35278,-0.08805 0.26472,-0.264724 0.17639,-0.264442 0.17639,-0.352778 0.17639,-0.352778 0,-0.352778 0,0 z m -0.35278,0 0,0 -0.0883,0.352778 -0.0881,0.264442 -0.0881,0.264725 -0.17667,0.176389 -0.26444,0.176389 -0.17639,0.176388 -0.35278,0.08834 -0.26472,0 0,0 -0.35278,0 -0.26444,-0.08834 -0.26445,-0.176388 -0.17667,-0.176389 -0.1761,-0.176389 -0.0883,-0.264725 -0.0883,-0.264442 -0.0881,-0.352778 0,0 0.0881,-0.264442 0.0883,-0.264724 0.0883,-0.264725 0.1761,-0.176106 0.26473,-0.176672 0.17639,-0.176106 0.35277,-0.08834 0.26445,0 0,0 0.26472,0 0.35278,0.08834 0.17639,0.176106 0.26444,0.176672 0.17667,0.176106 0.0881,0.264725 0.0881,0.264724 0.0883,0.264442 0,0 z m -0.70555,-0.352777 0,0 -0.0883,-0.176389 -0.0881,-0.176389 -0.26473,-0.176389 -0.26444,0 -0.79389,0 0,1.763889 0.44111,0 0,-0.617502 0.26445,0 0.35277,0.617502 0.52945,0 -0.44111,-0.617502 0,0 0.26444,-0.264443 0.0883,-0.08833 0,-0.264442 0,0 z m -0.35278,0.08834 0,0 -0.0883,0.176107 -0.26444,0.08833 -0.35278,0 0,-0.529166 0.35278,0 0,0 0.26444,0.08805 0.0883,0.176671 0,0 z m -8.20223,-19.138335 0,0 0.88223,-0.08834 0.79361,-0.264442 0.79361,-0.352778 0.70555,-0.61722 0.52945,-0.705556 0.44083,-0.882226 0.17639,-0.440831 0.17639,-0.529167 0.0881,-0.61722 0,-0.617502 0,0 0,-0.440831 -16.22778,0 0,0 -0.88166,0 -0.7939,0.176106 -0.79389,0.176671 -0.79361,0.264443 -0.70555,0.352777 -0.6175,0.352778 -0.61722,0.441114 -0.61722,0.528884 -0.44112,0.529449 -0.44111,0.61722 -0.44083,0.61722 -0.264726,0.705555 -0.264442,0.617503 -0.176389,0.793609 -0.176389,0.705555 0,0.705556 0,0 0,0 0,11.641666 0,0 0,0.705556 0.176389,0.705555 0.176389,0.793892 0.264442,0.61722 0.264726,0.705555 0.44083,0.617502 0.44111,0.617503 0.44112,0.528884 0.61722,0.529449 0.61722,0.440831 0.6175,0.352778 0.70555,0.352778 0.79361,0.264724 0.79389,0.176107 0.7939,0.176671 0.88166,0 0,0 16.22778,0 0,0 0,-0.441114 0,0 0,-0.61722 -0.0881,-0.617502 -0.17639,-0.529166 -0.17639,-0.441114 -0.44083,-0.881662 -0.52945,-0.705556 -0.70555,-0.617502 -0.79361,-0.352778 -0.79361,-0.264724 -0.88223,-0.08805 0,0 -11.64166,0 0,0 -0.35278,-0.08805 -0.35278,-0.08833 -0.35278,-0.176389 -0.35277,-0.176389 -0.26445,-0.352778 -0.17638,-0.352778 -0.17639,-0.352777 0,-0.441114 0,0 0,-0.528884 0.0883,-0.441113 0.26444,-0.352778 0.26445,-0.352778 0.26472,-0.264442 0.44083,-0.264725 0.52945,-0.08805 0.52889,-0.08834 0,0 5.02722,0 0,0 0.79389,0 0.79361,-0.08833 0.70556,-0.176107 0.70555,-0.176671 0.6175,-0.264442 0.61722,-0.352778 0.52917,-0.352778 0.52917,-0.352777 0.44111,-0.441114 0.44083,-0.440831 0.70556,-0.97028 0.6175,-1.146387 0.35278,-1.146386 -12.17112,0 0,0 -0.79361,0.08805 -0.6175,0.264725 -0.52888,0.264442 -0.44112,0.264442 -0.35278,0.352778 -0.17638,0.264724 -0.17639,0.264725 0,-5.11556 0,0 0,-0.440831 0.17639,-0.352778 0.17638,-0.352778 0.26445,-0.352778 0.35277,-0.176389 0.35278,-0.176389 0.35278,-0.08805 0.35278,-0.08834 11.64166,0 z m -79.551102,5.73278 0,0 -9.260558,-1.323058 0,0 -0.529167,-0.176389 -0.529166,-0.176389 -0.441114,-0.176389 -0.264442,-0.264442 -0.264583,-0.352778 -0.264584,-0.352778 -0.08819,-0.352777 0,-0.529449 0,0 0,-0.440831 0.176389,-0.352778 0.176389,-0.352778 0.264583,-0.352778 0.352778,-0.176389 0.352778,-0.176389 0.352777,-0.08805 0.352778,-0.08834 14.993056,0 0,-5.556109 0,0 -14.993056,0 0,0 -0.881944,0 -0.79375,0.176106 -0.79375,0.176671 -0.79375,0.264443 -0.705556,0.352777 -0.617361,0.352778 -0.617361,0.441114 -0.617361,0.528884 -0.440972,0.529449 -0.440973,0.61722 -0.440972,0.61722 -0.264583,0.705555 -0.264583,0.617503 -0.176389,0.793609 -0.08819,0.705555 -0.08819,0.705556 0,0 0.08819,1.323057 0.176389,0.705556 0.176389,0.617502 0.176389,0.61722 0.352778,0.61722 0.264583,0.617502 0.440972,0.529167 0.440972,0.529167 0.529167,0.440831 0.529167,0.441113 0.617361,0.441114 0.705555,0.352777 0.79375,0.264443 0.79375,0.264442 0.881945,0.176671 0,0 9.260558,1.322775 0,0 0.528884,0.176389 0.529449,0.08805 0.352778,0.264724 0.352778,0.264725 0.264442,0.352777 0.176389,0.352778 0.176389,0.352778 0,0.528884 0,0 -0.08834,0.441114 -0.08805,0.352777 -0.264725,0.352778 -0.264442,0.352778 -0.264442,0.176389 -0.352778,0.176389 -0.352778,0.08833 -0.352778,0.08805 -10.936252,0 0,0 0,0 -0.881944,0.08805 -0.79375,0.264724 -0.79375,0.352778 -0.705556,0.617502 -0.529166,0.705556 -0.440973,0.881662 -0.176389,0.441114 -0.176388,0.529166 -0.08819,0.617502 0,0.61722 0,0 0,0.441114 0,0 15.522363,0 0,0 0.793609,0 0.881945,-0.176671 0.793891,-0.176107 0.793609,-0.264724 0.705555,-0.352778 0.617503,-0.352778 0.61722,-0.440831 0.529166,-0.529449 0.529167,-0.528884 0.441113,-0.617503 0.352778,-0.617502 0.352778,-0.705555 0.264442,-0.61722 0.176389,-0.793892 0.08805,-0.705555 0.08834,-0.705556 0,0 -0.176389,-1.322775 -0.08805,-0.705556 -0.176672,-0.61722 -0.264442,-0.617502 -0.264442,-0.617502 -0.352778,-0.61722 -0.352778,-0.529167 -0.441113,-0.529167 -0.529167,-0.441113 -0.617502,-0.528884 -0.61722,-0.352778 -0.705555,-0.352778 -0.705556,-0.264724 -0.793891,-0.264725 -0.881662,-0.176106 0,0 z"
     id="path45"
     inkscape:connector-curvature="0" />
  <path
     style="fill:#7ac742;fill-opacity:1;fill-rule:nonzero;stroke:none"
     d="m 54.504167,0.70555401 0,0 -0.08834,2.38124999 0,0 L 52.563889,2.5576373 50.888053,2.0284707 48.771387,1.499304 46.478613,1.0583318 43.920833,0.61735957 41.275,0.26458179 38.629167,0.0881929 l 0,0 -2.381109,-0.088194445508 -2.646116,0 L 32.279167,0.0881929 30.77972,0.17638734 l -1.499164,0.17638889 -1.5875,0.26458334 -1.5875,0.35277777 -1.763889,0.44097226 -1.763889,0.5291666 -1.852084,0.7055556 -1.940277,0.79375 -1.940278,0.9701389 -2.116667,1.0583333 -2.116666,1.2347222 -0.352778,0.2645834 0,0 -2.028472,1.3229166 -1.7638893,1.4111111 -1.6756945,1.4111107 -1.4993055,1.5875 -1.3229167,1.5875 -1.2347222,1.675695 -0.9701389,1.763889 -0.79375001,1.763889 0,0 -0.26458333,0.705555 -0.26458334,0.79375 L 0.26458333,21.960415 0.08819444,23.018748 0,24.165276 l 0,1.234722 0.08819444,1.234723 0.26458334,1.234722 0,0 0.26458333,1.058333 0.44097219,1.058334 0.5291667,1.058333 0.6173611,0.97028 0,0 0.8819445,1.058333 0.8819444,0.969998 1.0583333,0.793891 1.1465278,0.793609 1.2347222,0.529167 1.2347223,0.529166 1.3229166,0.352778 1.4111108,0.176389 0,0 0.970139,0.08834 0.881945,-0.08834 0.881944,0 0.881945,-0.176389 0.79375,-0.176389 0.79375,-0.264442 0.705555,-0.352778 0.705556,-0.352778 0.705555,-0.441113 0.617361,-0.441113 0.529167,-0.528885 0.529167,-0.617502 0.440972,-0.617502 0.440972,-0.705556 0.352778,-0.793609 0.264583,-0.793608 0,0 0.264584,-1.146669 0.08819,-1.322776 -0.176389,-1.323058 -0.08819,-0.617361 -0.176389,-0.705555 -0.264584,-0.617361 -0.264583,-0.617362 -0.440972,-0.617361 -0.352778,-0.617361 -0.529167,-0.617361 -0.529166,-0.529167 -0.529167,-0.440972 -0.705555,-0.440972 0,0 -1.146528,-0.617361 -1.146528,-0.352778 -1.058333,-0.264583 -1.058334,0 -1.058333,0.08819 -0.970139,0.176389 -0.881944,0.352778 -0.79375,0.440972 0,0 L 9.525,21.519443 8.9958333,22.04861 8.5548611,22.577776 8.2020833,23.106943 7.9375,23.724304 l -0.1763889,0.617361 -0.1763889,0.705556 0,0.705555 0,0 0,0.529167 0.088195,0.617361 0.1763889,0.440972 0.1763888,0.529167 0.2645834,0.440831 0.2645833,0.441113 0.7055556,0.705556 0.7937503,0.529167 0.79375,0.352777 0.79375,0.264725 0.79375,0.08805 0,0 0.881944,-0.08805 0.970139,-0.264725 0,0 0.352778,-0.08805 0.352778,-0.176671 0.08819,-0.08805 0,0 0,0 0,0 0.264583,-0.264725 0.264584,-0.352778 0.176389,-0.352777 0,-0.352778 0,0 0,-0.529026 0,0 -0.176389,-0.264583 -0.176389,-0.264583 -0.176389,-0.176389 -0.264583,-0.176389 -0.264584,-0.176389 -0.264583,-0.0882 -0.264583,0 -0.352778,0 -0.08819,0.0882 -0.176389,0 -0.264583,0.08819 0,0 -0.529167,0.0882 -0.352777,0 0,0 -0.264584,-0.0882 -0.440972,-0.264583 -0.264583,-0.176389 -0.176389,-0.264583 -0.176389,-0.352778 0,-0.440972 0,0 0,0 0,-0.352778 0.08819,-0.264583 0.176389,-0.352778 0,0 0.352778,-0.440972 0.617361,-0.352778 0.79375,-0.176389 0.440972,-0.08819 0.440973,0 0,0 0.705555,0.08819 0.529167,0.176389 0.529167,0.264583 0.529166,0.264584 0.440972,0.440972 0.440973,0.440972 0.352777,0.529167 0.352778,0.529166 0,0 0.264584,0.617361 0.08819,0.617362 0.08819,0.705414 0,0.617502 -0.08819,0.617502 -0.264583,0.61722 -0.264584,0.61722 -0.352777,0.529449 0,0 -0.440973,0.528885 -0.529166,0.441113 -0.617361,0.264442 -0.617362,0.264725 -0.79375,0.176389 -0.79375,0.08834 -0.881944,0.08805 -0.970139,-0.08805 0,0 L 10.847917,32.896385 9.8777778,32.631943 9.0840278,32.279165 8.2020833,31.749998 7.4965278,31.220832 6.8791667,30.515276 6.2618056,29.809721 5.7326389,28.927776 l 0,0 L 5.3798611,28.045832 5.0270833,27.163887 4.8506944,26.281943 4.7625,25.311804 l 0.088194,-0.881944 0.088195,-0.881945 0.2645833,-0.881944 0.3527778,-0.79375 0,0 0.5291667,-0.881945 0.6173611,-0.705555 0.5291666,-0.705556 0.7055556,-0.529167 0.6173611,-0.440972 0.7055556,-0.440972 0.7055555,-0.264583 0.7055558,-0.264584 0.705555,-0.176389 0.79375,-0.08819 1.322917,-0.08819 1.322917,0 1.058333,0.176388 0,0 0.79375,0.176389 0.79375,0.176389 0.79375,0.352778 0.79375,0.352778 0.881944,0.440972 0.881945,0.529167 0.881944,0.617361 0.79375,0.705555 0.79375,0.705556 0.79375,0.881944 0.79375,0.970139 0.705556,1.058334 0.705555,1.146527 0.617362,1.234723 0.529166,1.411111 0.440972,1.411111 5.291667,0 0,0 -0.176389,-0.97028 -0.08834,-1.146387 -0.08805,-0.617361 0.08805,-0.705556 0.08834,-0.617361 0.176389,-0.705555 0.264725,-0.617361 0.352777,-0.617361 0.440831,-0.529167 0.529167,-0.529167 0.705556,-0.352778 0.793891,-0.352777 0.881662,-0.176389 1.058333,0 0,0 1.146669,0 1.058334,0.176389 0.969997,0.264583 0.793891,0.264583 0.705556,0.440973 0.705556,0.440972 0.529166,0.529166 0.529167,0.617362 0.441113,0.617361 0.440831,0.617361 0.705556,1.322916 0.617502,1.322776 0.705556,1.323058 5.644444,0 0,0 -0.529449,-0.793609 -0.528884,-0.882086 -0.352778,-0.79375 -0.352778,-0.881944 -0.264724,-0.79375 -0.176389,-0.79375 -0.08834,-0.79375 0.08834,-0.79375 0,0 0.08834,-0.529167 0.176107,-0.440972 0.176671,-0.352778 0.264442,-0.352778 0.264443,-0.264583 0.352777,-0.176389 0.264725,-0.176389 0.440831,-0.08819 0.793891,-0.176389 0.969998,0 2.293338,0.264583 0,0 1.675553,0.176389 1.852224,0.08819 0,0 1.322776,0 1.234722,-0.08819 1.234722,-0.176389 1.146669,-0.176389 1.058334,-0.176388 1.058333,-0.352778 0.969998,-0.264584 0.969998,-0.352777 0,0 1.852224,-0.881945 0.705556,-0.352778 0.441113,-0.440972 0,0 0.264442,-0.352778 0.176389,-0.440972 0.08805,-0.176389 0,0 0.352778,-1.058333 0,0 0,-0.352778 -0.08805,0 -0.08805,0 -0.176671,0.0882 0,0 -1.058333,0.529166 -1.411111,0.529167 -0.881662,0.264583 -0.882227,0.264584 -0.881662,0.08819 -0.882227,0.0882 0,0 -0.528884,0 -0.705556,-0.0882 -1.411111,-0.352778 -1.499447,-0.440972 -1.499446,-0.617361 -2.557498,-1.146528 -1.323058,-0.617361 0,-0.08819 0,0 -1.23444,-2.910417 0,0 1.499165,0.970139 1.499164,0.881944 1.499447,0.79375 1.322775,0.617361 1.323058,0.529167 1.146387,0.440972 1.146669,0.264584 1.058333,0.08819 0,0 1.146669,0.0882 0.969998,-0.176389 0.969997,-0.264584 0.882227,-0.264583 0.793609,-0.352778 0.617502,-0.440972 1.058333,-0.617361 0,0 0.264443,-0.264583 0.08833,-0.176389 0,-0.264584 0,0 -0.441113,-1.499305 -0.705556,-2.1166669 -0.352777,-1.1465278 -0.441114,-0.9701388 -0.440831,-0.79375 -0.440831,-0.6173612 0,0 -0.529449,-0.5291666 -0.264442,-0.1763889 -0.352778,-0.2645833 0,0 L 68.791667,4.3215262 67.821387,3.880554 65.528613,3.086804 63.147222,2.3812485 60.677778,1.7638873 58.473058,1.3229151 56.532498,0.97013734 54.592502,0.61735957 l 0,0 -0.08834,0 0,0.0881944 0,0 z m 7.055555,8.55486109 0,0 0.08834,-0.8819444 0.264442,-0.79375 0.441113,-0.79375 0.528885,-0.6173611 0,0 0.705555,-0.5291667 0.793891,-0.3527778 0.793892,-0.2645833 0.881662,0 0,0 0.882226,0.088194 0.793609,0.2645834 0.793609,0.4409722 0.617502,0.6173611 0.529167,0.6173611 0.352778,0.79375 0.264442,0.79375 0,0.8819445 0,0 -0.08805,0.8819445 -0.264725,0.79375 -0.440831,0.79375 -0.617502,0.617361 0,0 -0.61722,0.529167 -0.793891,0.352777 -0.793609,0.264584 -0.881944,0 0,0 -0.881945,-0.08819 -0.881944,-0.264583 -0.705556,-0.440972 -0.61722,-0.617361 -0.529449,-0.617361 -0.352778,-0.79375 -0.264442,-0.79375 0,-0.8819449 0,0 z"
     id="path47"
     inkscape:connector-curvature="0" />
  <path
     style="fill:#7ac742;fill-opacity:1;fill-rule:nonzero;stroke:none"
     d="m 66.057498,6.261804 0,0 -0.61722,0.088195 -0.61722,0.088194 -0.529449,0.2645833 -0.440831,0.4409723 0,0 -0.440831,0.4409722 -0.264725,0.5291666 -0.176389,0.5291667 -0.08834,0.6173611 0,0 0,0.6173611 0.176671,0.5291668 0.264442,0.529167 0.352778,0.529166 0.441113,0.352778 0.528885,0.352778 0.529449,0.176389 0.61722,0.08819 0,0 0.61722,-0.08819 0.617502,-0.08819 0.529166,-0.264583 0.441114,-0.440972 0,0 0.440831,-0.440973 0.264724,-0.529166 0.176107,-0.529167 0.08834,-0.617361 0,0 0,-0.6173611 L 68.791667,8.2902762 68.526942,7.7611096 68.174164,7.2319429 67.733333,6.8791651 67.204167,6.6145818 66.675,6.3499985 66.057498,6.261804 l 0,0 z m 0.441113,3.3513889 0,0 -0.529167,0 -0.440831,-0.2645833 -0.264724,-0.2645834 -0.08805,-0.1763889 0,-0.1763888 0,0 0,-0.1763889 0.08805,-0.1763889 0.264724,-0.2645834 0.440831,-0.1763888 0.529167,-0.088195 0,0 0.529167,0.088195 0.440831,0.1763888 0.352778,0.2645834 0.08834,0.1763889 0,0.1763889 0,0 0,0.1763888 -0.08834,0.1763889 -0.352778,0.2645834 -0.440831,0.2645833 -0.529167,0 0,0 z"
     id="path49"
     inkscape:connector-curvature="0" />
</svg>
